<?xml version="1.0" standalone="no"?>
<!DOCTYPE svg PUBLIC "-//W3C//DTD SVG 20010904//EN"
 "http://www.w3.org/TR/2001/REC-SVG-20010904/DTD/svg10.dtd">
<svg version="1.0" xmlns="http://www.w3.org/2000/svg"
 width="700.000000pt" height="700.000000pt" viewBox="0 0 700.000000 700.000000"
 preserveAspectRatio="xMidYMid meet">
<metadata>
Created by potrace 1.14, written by Peter Selinger 2001-2017
</metadata>
<g transform="translate(0.000000,700.000000) scale(0.100000,-0.100000)"
fill="#000000" stroke="none">
<path d="M3278 6995 c-2 -2 -28 -5 -59 -8 -31 -2 -62 -8 -69 -12 -9 -6 -11 -4
-5 5 6 10 4 12 -11 6 -19 -8 -86 -18 -136 -20 -16 0 -28 -4 -28 -7 0 -3 -10
-6 -22 -5 -13 1 -47 -4 -77 -11 -30 -6 -58 -10 -63 -7 -4 3 -8 1 -8 -3 0 -5
-8 -9 -17 -10 -10 0 -29 -4 -43 -7 -14 -3 -38 -9 -55 -13 -16 -4 -36 -6 -42
-4 -7 1 -13 -2 -13 -7 0 -5 -10 -9 -22 -8 -13 1 -33 -4 -44 -11 -12 -8 -26
-13 -30 -12 -13 3 -67 -12 -81 -23 -7 -5 -17 -7 -23 -3 -5 3 -10 1 -10 -5 0
-6 -4 -9 -10 -5 -5 3 -17 1 -27 -4 -10 -6 -56 -24 -103 -41 -47 -18 -91 -37
-99 -43 -12 -10 -13 -9 -6 2 5 8 -7 4 -25 -9 -18 -13 -30 -17 -25 -9 7 12 6
12 -11 -1 -10 -8 -22 -19 -26 -25 -4 -5 -8 -7 -8 -2 0 4 -13 1 -29 -7 -16 -9
-31 -12 -35 -9 -3 4 -6 1 -6 -5 0 -7 -7 -12 -15 -12 -8 0 -15 -5 -15 -11 0 -5
-4 -7 -10 -4 -5 3 -10 2 -10 -4 0 -6 -7 -8 -15 -5 -8 4 -15 1 -15 -6 0 -6 -4
-8 -10 -5 -5 3 -10 2 -10 -3 0 -5 -20 -17 -45 -28 -25 -10 -45 -22 -45 -27 0
-4 -4 -5 -10 -2 -5 3 -10 2 -10 -3 0 -6 -11 -13 -25 -16 -14 -4 -25 -11 -25
-16 0 -6 -6 -10 -14 -10 -7 0 -19 -7 -26 -15 -7 -8 -16 -12 -21 -9 -5 3 -9 0
-9 -6 0 -6 -5 -8 -10 -5 -6 3 -13 -1 -16 -9 -3 -9 -12 -16 -18 -16 -7 0 -23
-10 -36 -22 -14 -13 -27 -22 -30 -21 -3 1 -15 -7 -28 -17 -12 -11 -26 -20 -30
-20 -4 0 -19 -11 -34 -24 -14 -14 -28 -22 -32 -19 -3 3 -8 -2 -12 -11 -3 -9
-12 -16 -20 -16 -8 0 -14 -5 -14 -12 0 -6 -3 -9 -6 -6 -3 4 -19 -8 -35 -24
-16 -17 -29 -28 -29 -24 0 4 -12 -4 -27 -18 -16 -14 -43 -39 -60 -55 -18 -17
-33 -28 -33 -25 0 3 -16 -11 -35 -30 -19 -20 -35 -33 -35 -29 0 5 -9 -5 -20
-22 -11 -16 -20 -27 -20 -22 0 4 -38 -32 -85 -80 -47 -48 -85 -91 -85 -95 0
-4 -7 -8 -17 -8 -9 0 -14 -3 -11 -6 3 -3 -8 -20 -24 -37 -17 -18 -43 -49 -58
-69 -15 -21 -30 -34 -34 -31 -3 3 -6 -1 -6 -11 0 -9 -7 -19 -15 -22 -8 -4 -12
-10 -9 -15 3 -5 0 -9 -6 -9 -6 0 -16 -11 -22 -25 -6 -14 -17 -25 -25 -25 -7 0
-12 -4 -11 -9 2 -5 -14 -32 -34 -60 -21 -28 -38 -55 -38 -61 0 -6 -5 -8 -10
-5 -6 3 -10 -1 -10 -9 0 -9 -9 -25 -19 -35 -11 -11 -17 -22 -14 -25 4 -3 1 -6
-5 -6 -7 0 -12 -5 -12 -11 0 -6 -13 -29 -29 -52 -15 -23 -31 -52 -35 -64 -4
-13 -12 -23 -17 -23 -5 0 -9 -5 -9 -11 0 -6 -9 -24 -21 -40 -11 -16 -18 -29
-15 -29 2 0 -11 -26 -30 -57 -19 -31 -34 -63 -34 -70 0 -7 -5 -13 -11 -13 -5
0 -8 -4 -5 -8 3 -5 -3 -22 -13 -38 -9 -16 -28 -56 -41 -89 -13 -33 -29 -63
-34 -67 -6 -4 -8 -8 -4 -8 4 0 -2 -21 -13 -47 -12 -27 -22 -55 -24 -63 -4 -18
-34 -99 -44 -120 -4 -8 -7 -25 -6 -37 1 -12 -2 -20 -7 -17 -4 3 -8 -4 -8 -16
0 -12 -4 -29 -9 -39 -6 -10 -12 -28 -14 -42 -2 -13 -7 -32 -12 -41 -4 -10 -4
-25 -1 -34 3 -8 2 -13 -3 -10 -8 5 -27 -77 -23 -96 1 -5 -3 -8 -9 -8 -5 0 -8
-3 -6 -7 4 -7 -6 -73 -30 -188 -3 -16 -6 -47 -7 -67 0 -21 -4 -38 -8 -38 -4 0
-5 -18 -3 -40 2 -23 1 -39 -3 -36 -4 2 -9 -26 -10 -62 -7 -138 -10 -507 -4
-516 3 -5 5 -32 5 -60 -1 -28 3 -56 8 -63 7 -7 6 -14 -1 -18 -6 -3 -8 -11 -4
-16 3 -6 8 -29 10 -52 5 -57 12 -107 19 -137 3 -14 6 -37 7 -52 1 -16 5 -28 8
-28 3 0 5 -10 6 -22 1 -27 10 -77 18 -98 3 -8 7 -28 10 -45 10 -59 17 -88 27
-107 5 -10 7 -18 4 -18 -3 0 4 -22 14 -49 10 -28 17 -52 15 -54 -3 -2 2 -17
10 -32 8 -15 12 -34 9 -41 -3 -8 -1 -14 4 -14 5 0 15 -21 22 -48 8 -26 18 -52
23 -58 5 -7 8 -16 7 -20 -1 -5 8 -31 21 -59 12 -27 23 -56 23 -62 0 -7 4 -13
9 -13 4 0 7 -3 6 -7 -5 -27 196 -415 226 -435 6 -4 8 -10 4 -13 -6 -6 3 -19
37 -59 6 -6 19 -27 29 -46 11 -19 22 -37 25 -40 4 -3 19 -24 34 -47 15 -24 32
-43 38 -43 5 0 8 -4 5 -8 -3 -5 6 -20 20 -35 13 -14 24 -29 24 -32 0 -5 38
-50 67 -81 7 -7 13 -15 13 -19 0 -3 10 -16 22 -29 13 -13 52 -56 88 -96 36
-40 76 -83 88 -94 57 -51 89 -85 84 -90 -3 -3 1 -6 8 -6 8 0 28 -15 45 -32 17
-18 55 -53 84 -78 30 -25 63 -53 73 -62 10 -10 18 -15 18 -12 0 3 6 -1 14 -8
31 -29 57 -48 67 -48 5 0 7 -4 4 -10 -3 -5 0 -10 8 -10 8 0 29 -13 46 -29 17
-16 31 -27 31 -24 0 7 73 -48 82 -61 5 -7 8 -7 8 -1 0 6 7 1 16 -10 8 -11 16
-18 17 -17 4 7 57 -21 57 -30 0 -4 7 -8 15 -8 8 0 15 -4 15 -10 0 -5 9 -10 19
-10 11 0 21 -3 23 -7 4 -9 60 -42 138 -81 30 -15 57 -30 58 -35 2 -4 8 -5 13
-1 5 3 9 1 9 -4 0 -5 20 -15 44 -21 24 -6 49 -17 55 -25 7 -8 26 -18 42 -21
16 -4 29 -11 29 -16 0 -6 4 -8 8 -5 5 3 21 -2 36 -9 16 -8 32 -12 37 -9 5 3 9
1 9 -3 0 -9 60 -34 95 -40 10 -2 30 -10 42 -18 13 -9 23 -13 23 -10 0 3 16 -1
35 -9 19 -8 35 -12 35 -9 0 3 7 0 15 -7 8 -7 15 -9 15 -6 0 4 10 1 22 -5 20
-11 41 -15 96 -21 6 -1 12 -6 12 -11 0 -5 9 -7 20 -4 11 3 20 1 20 -5 0 -6 6
-8 14 -5 8 3 17 3 20 -1 8 -7 41 -14 74 -15 12 -1 22 -4 22 -8 0 -4 11 -9 25
-11 14 -3 25 -1 25 6 0 8 2 8 8 0 4 -6 14 -11 22 -12 31 -2 106 -14 120 -19
18 -7 74 -13 152 -16 32 -1 58 -4 58 -7 0 -8 329 -17 425 -11 19 1 93 3 145 4
14 0 28 5 32 11 5 7 8 7 8 -2 0 -7 5 -10 11 -6 11 6 62 12 159 17 25 1 47 5
50 8 3 4 29 10 59 13 29 3 60 11 69 18 12 10 14 10 8 1 -4 -7 -3 -13 3 -13 5
0 12 4 15 9 4 5 14 8 24 6 9 -1 22 1 27 5 6 5 26 9 45 11 19 2 40 5 45 8 10 5
24 9 55 15 8 1 22 5 30 9 8 4 24 8 35 10 11 2 40 10 65 17 25 7 48 13 53 12 4
-1 7 2 7 6 0 5 6 9 13 10 31 2 165 48 183 63 8 6 14 9 14 6 0 -3 12 0 27 8 15
8 30 12 35 9 4 -3 8 0 8 6 0 7 7 10 15 6 8 -3 21 4 30 17 10 15 15 17 15 7 1
-13 2 -13 13 0 7 8 19 16 27 18 8 2 52 21 97 43 45 22 86 39 89 39 4 -1 11 5
16 14 5 9 13 14 19 11 5 -4 9 -1 9 4 0 6 9 11 19 11 11 0 21 3 23 8 4 10 88
64 88 57 0 -8 94 57 98 68 2 4 7 5 12 2 4 -2 19 6 33 19 14 13 28 21 31 18 3
-3 6 0 6 6 0 7 7 12 15 12 8 0 15 5 15 10 0 6 5 10 10 10 6 0 22 12 35 26 13
14 27 25 32 25 4 0 20 11 35 25 15 13 31 24 34 24 4 0 17 10 29 23 12 12 35
32 51 44 16 12 45 36 64 53 19 16 39 30 43 30 5 0 5 5 2 10 -3 6 -2 10 3 10
14 0 52 36 45 44 -3 3 -1 6 5 6 16 0 102 84 102 99 0 6 3 10 8 8 9 -3 116 111
191 204 7 9 24 28 37 43 13 14 20 26 16 26 -4 0 0 6 9 13 8 7 48 59 89 117 41
58 78 108 83 111 4 3 9 15 10 27 0 11 4 19 8 16 4 -2 10 5 14 16 3 11 10 20
15 20 5 0 6 7 3 17 -4 10 -2 14 4 10 6 -4 18 10 27 33 9 22 21 40 28 40 6 0 9
3 6 6 -3 3 11 37 33 75 21 38 49 93 63 122 47 100 88 192 91 202 1 6 8 24 15
42 6 18 11 35 10 39 -1 4 4 10 11 14 7 5 13 16 14 27 1 10 7 31 14 46 6 16 11
34 11 42 0 8 5 17 10 20 6 4 8 10 5 15 -3 5 0 12 6 15 5 4 8 13 5 21 -3 7 -1
16 4 19 5 3 12 26 16 50 3 25 10 43 14 40 4 -2 6 8 6 23 -1 15 2 32 6 37 7 11
15 46 25 107 3 21 8 36 12 34 6 -4 11 35 14 106 1 20 5 34 8 32 6 -4 20 81 33
203 2 23 7 46 11 52 3 6 2 11 -3 11 -5 0 -9 7 -9 15 0 8 3 12 6 10 21 -12 16
607 -5 659 -6 15 -4 17 7 11 11 -7 12 -6 2 6 -7 8 -12 24 -12 34 1 32 -8 92
-15 103 -3 6 0 13 6 15 10 4 10 6 1 6 -8 1 -13 15 -13 36 0 19 -4 35 -8 35 -5
0 -7 16 -6 35 2 19 0 35 -4 35 -5 0 -7 14 -6 30 1 17 -1 30 -5 30 -4 0 -8 6
-9 13 0 6 -4 28 -7 47 -4 19 -8 43 -8 53 -1 9 -5 17 -10 17 -4 0 -5 5 -2 10 3
6 3 16 -2 23 -4 6 -8 17 -9 22 -6 29 -29 111 -34 115 -3 3 -7 16 -9 30 -1 14
-9 37 -17 52 -8 15 -14 30 -14 33 0 3 0 6 -1 8 0 1 -2 10 -4 19 -2 9 -10 31
-18 47 -9 17 -18 44 -22 61 -4 16 -10 30 -14 30 -4 0 -8 7 -8 15 0 8 -7 29
-16 47 -8 18 -30 66 -48 106 -18 39 -36 72 -41 72 -4 0 -7 3 -6 8 4 14 -13 52
-23 52 -6 0 -7 5 -4 10 3 6 2 10 -4 10 -6 0 -8 7 -5 15 4 8 2 15 -2 15 -5 0
-18 18 -28 40 -11 22 -23 40 -28 40 -4 0 -7 3 -6 8 3 12 -24 62 -34 62 -4 0
-7 3 -6 8 2 4 -24 48 -57 97 -63 95 -70 105 -97 135 -9 10 -15 20 -13 22 2 2
-11 21 -30 43 -19 21 -35 45 -35 52 0 8 -4 11 -10 8 -5 -3 -10 1 -10 9 0 9 -5
16 -10 16 -6 0 -15 11 -22 25 -6 13 -15 22 -19 19 -5 -3 -9 -1 -9 5 0 11 -27
43 -132 154 -37 40 -68 75 -68 80 0 4 -4 7 -10 7 -5 0 -19 9 -30 20 -11 11
-20 25 -20 30 0 6 -4 10 -10 10 -5 0 -20 11 -33 24 -14 14 -28 22 -31 19 -3
-4 -6 1 -6 10 0 9 -4 17 -10 17 -5 0 -20 11 -34 25 -14 14 -30 25 -36 25 -6 0
-9 4 -6 8 2 4 -12 19 -32 32 -20 14 -39 27 -42 30 -20 21 -110 91 -110 85 0
-3 -7 1 -16 9 -28 29 -101 75 -108 69 -3 -4 -6 0 -6 8 0 8 -18 23 -40 33 -22
11 -40 23 -40 28 0 5 -4 6 -10 3 -5 -3 -10 -1 -10 4 0 6 -7 11 -15 11 -8 0
-15 4 -15 8 0 5 -16 14 -35 22 -19 8 -35 18 -35 22 0 5 -4 6 -10 3 -5 -3 -10
-3 -10 2 0 10 -57 43 -75 43 -7 0 -15 3 -17 8 -1 4 -34 22 -73 41 -38 18 -87
42 -107 53 -21 10 -38 16 -38 12 0 -3 -6 -2 -12 4 -7 5 -53 27 -103 47 -99 40
-96 39 -142 50 -18 4 -33 10 -33 14 0 4 -12 8 -26 9 -15 1 -32 6 -38 11 -11 9
-85 26 -98 23 -5 -1 -8 2 -8 8 0 5 -7 7 -15 4 -8 -4 -15 -2 -15 4 0 5 -8 9
-17 9 -10 -1 -36 4 -58 10 -22 7 -53 14 -70 17 -16 2 -54 11 -82 19 -32 8 -53
10 -53 4 0 -6 -5 -6 -12 1 -16 12 -104 27 -213 36 -27 3 -50 6 -50 7 0 1 -25
3 -55 4 -30 2 -55 4 -55 5 0 4 -464 8 -467 5z"/>
</g>
</svg>
